HIERARCHY
ROOT Hips
{
  OFFSET 0.606267 15.729 30.7291
  CHANNELS 6 Xposition Yposition Zposition Zrotation Xrotation Yrotation
  JOINT LHipJoint
  {
    OFFSET 0 0 0
    CHANNELS 6 Xposition Yposition Zposition Zrotation Xrotation Yrotation
    JOINT LeftUpLeg
    {
      OFFSET 1.36306 -1.79463 0.83929
      CHANNELS 6 Xposition Yposition Zposition Zrotation Xrotation Yrotation
      JOINT LeftLeg
      {
        OFFSET 2.44811 -6.72613 0
        CHANNELS 6 Xposition Yposition Zposition Zrotation Xrotation Yrotation
        JOINT LeftFoot
        {
          OFFSET 2.5622 -7.03959 0
          CHANNELS 6 Xposition Yposition Zposition Zrotation Xrotation Yrotation
          JOINT LeftToeBase
          {
            OFFSET 0.15764 -0.43311 2.32255
            CHANNELS 6 Xposition Yposition Zposition Zrotation Xrotation Yrotation
            End Site
            {
              OFFSET 0 0 0
            }
          }
        }
      }
    }
  }
  JOINT RHipJoint
  {
    OFFSET 0 0 0
    CHANNELS 6 Xposition Yposition Zposition Zrotation Xrotation Yrotation
    JOINT RightUpLeg
    {
      OFFSET -1.30552 -1.79463 0.83929
      CHANNELS 6 Xposition Yposition Zposition Zrotation Xrotation Yrotation
      JOINT RightLeg
      {
        OFFSET -2.54253 -6.98555 0
        CHANNELS 6 Xposition Yposition Zposition Zrotation Xrotation Yrotation
        JOINT RightFoot
        {
          OFFSET -2.56826 -7.05623 0
          CHANNELS 6 Xposition Yposition Zposition Zrotation Xrotation Yrotation
          JOINT RightToeBase
          {
            OFFSET -0.16473 -0.45259 2.36315
            CHANNELS 6 Xposition Yposition Zposition Zrotation Xrotation Yrotation
            End Site
            {
              OFFSET 0 0 0
            }
          }
        }
      }
    }
  }
  JOINT LowerBack
  {
    OFFSET 0 0 0
    CHANNELS 6 Xposition Yposition Zposition Zrotation Xrotation Yrotation
    JOINT Spine
    {
      OFFSET 0.02827 2.03559 -0.19338
      CHANNELS 6 Xposition Yposition Zposition Zrotation Xrotation Yrotation
      JOINT Spine1
      {
        OFFSET 0.05672 2.04885 -0.04275
        CHANNELS 6 Xposition Yposition Zposition Zrotation Xrotation Yrotation
        JOINT Neck
        {
          OFFSET 0 0 0
          CHANNELS 6 Xposition Yposition Zposition Zrotation Xrotation Yrotation
          JOINT Neck1
          {
            OFFSET -0.05417 1.74624 0.17202
            CHANNELS 6 Xposition Yposition Zposition Zrotation Xrotation Yrotation
            JOINT Head
            {
              OFFSET 0.10407 1.76136 -0.12397
              CHANNELS 6 Xposition Yposition Zposition Zrotation Xrotation Yrotation
              End Site
              {
                OFFSET 0 0 0
              }
            }
          }
        }
        JOINT LeftShoulder
        {
          OFFSET 0 0 0
          CHANNELS 6 Xposition Yposition Zposition Zrotation Xrotation Yrotation
          JOINT LeftArm
          {
            OFFSET 3.36241 1.20089 -0.31121
            CHANNELS 6 Xposition Yposition Zposition Zrotation Xrotation Yrotation
            JOINT LeftForeArm
            {
              OFFSET 4.983 0 0
              CHANNELS 6 Xposition Yposition Zposition Zrotation Xrotation Yrotation
              JOINT LeftHand
              {
                OFFSET 3.48356 0 0
                CHANNELS 6 Xposition Yposition Zposition Zrotation Xrotation Yrotation
                JOINT LeftFingerBase
                {
                  OFFSET 0 0 0
                  CHANNELS 6 Xposition Yposition Zposition Zrotation Xrotation Yrotation
                  JOINT LeftHandIndex1
                  {
                    OFFSET 0.71526 0 0
                    CHANNELS 6 Xposition Yposition Zposition Zrotation Xrotation Yrotation
                    End Site
                    {
                      OFFSET 0 0 0
                    }
                  }
                }
                JOINT LThumb
                {
                  OFFSET 0 0 0
                  CHANNELS 6 Xposition Yposition Zposition Zrotation Xrotation Yrotation
                  End Site
                  {
                    OFFSET 0 0 0
                  }
                }
              }
            }
          }
        }
        JOINT RightShoulder
        {
          OFFSET 0 0 0
          CHANNELS 6 Xposition Yposition Zposition Zrotation Xrotation Yrotation
          JOINT RightArm
          {
            OFFSET -3.1366 1.37405 -0.40465
            CHANNELS 6 Xposition Yposition Zposition Zrotation Xrotation Yrotation
            JOINT RightForeArm
            {
              OFFSET -5.2419 0 0
              CHANNELS 6 Xposition Yposition Zposition Zrotation Xrotation Yrotation
              JOINT RightHand
              {
                OFFSET -3.44417 0 0
                CHANNELS 6 Xposition Yposition Zposition Zrotation Xrotation Yrotation
                JOINT RightFingerBase
                {
                  OFFSET 0 0 0
                  CHANNELS 6 Xposition Yposition Zposition Zrotation Xrotation Yrotation
                  JOINT RightHandIndex1
                  {
                    OFFSET -0.62253 0 0
                    CHANNELS 6 Xposition Yposition Zposition Zrotation Xrotation Yrotation
                    End Site
                    {
                      OFFSET 0 0 0
                    }
                  }
                }
                JOINT RThumb
                {
                  OFFSET 0 0 0
                  CHANNELS 6 Xposition Yposition Zposition Zrotation Xrotation Yrotation
                  End Site
                  {
                    OFFSET 0 0 0
                  }
                }
              }
            }
          }
        }
      }
    }
  }
}
MOTION
Frames:	8
Frame Time:	0.00833333
0.0957802 17.2163 2.74499 -0.0111396 8.63947 -1.34464 0 0 0 -0.299681 5.35791 18.0368 1.36306 -1.79463 0.83929 -32.7035 -30.0484 -18.9112 2.44811 -6.72613 -1.77636e-015 -0.99905 57.1539 17.5102 2.5622 -7.03959 0 1.79839 11.0131 -0.107534 0.15764 -0.43311 2.32255 1.01722e-006 2.10329e-006 1.45967e-006 0 0 0 -8.85582 0.425549 -20.6242 -1.30552 -1.79463 0.83929 28.6909 -13.0631 11.1962 -2.54253 -6.98555 0 -12.654 27.123 -70.444 -2.56826 -7.05623 6.66134e-016 6.69699 22.8597 -3.93123 -0.16473 -0.45259 2.36315 -1.97345e-006 -2.86288e-006 4.23701e-006 0 0 0 -1.93281 -2.12354 0.12108 0.02827 2.03559 -0.19338 5.68563 22.6114 -0.879584 0.05672 2.04885 -0.04275 -2.76826 -5.77838 0.162457 0 0 0 -1.00716 -9.92052 -0.0272216 -0.05417 1.74624 0.17202 2.43773 26.9013 -1.27784 0.10407 1.76136 -0.12397 3.68056e-008 -1.84057e-009 -1.00149e-007 0 0 0 15.4998 -7.031 17.3391 3.36241 1.20089 -0.31121 -78.2193 6.33804 12.1654 4.983 -1.77636e-015 8.88178e-016 -37.2563 25.3768 -63.1281 3.48356 -6.10623e-016 1.77636e-015 1.4306 0.10513 -1.77202 0 0 0 -0.121024 2.85552e-007 -1.14815 0.71526 6.10623e-016 0 8.94733e-007 -1.92103e-006 -2.5206e-006 0 0 0 -1.59028e-015 -7.95139e-016 -0 0 0 0 -9.50805 -5.28364 -8.73908 -3.1366 1.37405 -0.40465 79.3445 11.0965 -5.58081 -5.2419 0 1.77636e-015 13.6519 24.4126 78.5849 -3.44417 0 -1.77636e-015 17.9804 -9.15663 -15.3344 0 0 0 0.388202 -2.00681e-006 2.4941 -0.62253 0 0 4.87542e-006 -1.45026e-006 4.4143e-006 0 0 0 -7.95139e-015 9.54166e-015 -3.18055e-015 
0.0913858 17.1882 2.8308 0.153598 8.66391 -1.49598 0 0 0 -0.299681 5.35791 18.0368 1.36306 -1.79463 0.83929 -33.4048 -31.4169 -19.3582 2.44811 -6.72613 0 -1.2813 58.6652 18.5029 2.5622 -7.03959 -7.77156e-016 0.993922 12.2119 0.449989 0.15764 -0.43311 2.32255 0.622263 0.228983 0.347573 0 0 0 -8.85582 0.425549 -20.6242 -1.30552 -1.79463 0.83929 28.4734 -13.109 11.3494 -2.54253 -6.98555 8.88178e-016 -12.6016 27.4997 -70.5959 -2.56826 -7.05623 0 7.02783 22.8022 -3.95569 -0.16473 -0.45259 2.36315 -0.00867989 0.261786 -0.0930186 0 0 0 -1.93281 -2.12354 0.12108 0.02827 2.03559 -0.19338 5.43726 22.8074 -0.982733 0.05672 2.04885 -0.04275 -2.57878 -5.85628 0.111024 0 0 0 -1.04999 -10.2427 -0.0344326 -0.05417 1.74624 0.17202 2.38868 26.5792 -1.26228 0.10407 1.76136 -0.12397 0.0233085 -0.182092 -0.0539987 0 0 0 15.5057 -7.29173 16.9815 3.36241 1.20089 -0.31121 -77.487 6.19696 12.2253 4.983 0 -1.77636e-015 -37.2347 25.367 -63.4882 3.48356 -9.99201e-016 0 1.10399 0.138115 -1.92085 0 0 0 -0.121024 2.85552e-007 -1.14815 0.71526 2.22045e-016 0 8.94733e-007 -1.92103e-006 -2.5206e-006 0 0 0 -7.95139e-016 7.95139e-016 3.18055e-015 0 0 0 -9.44239 -5.46887 -8.78452 -3.1366 1.37405 -0.40465 78.6704 10.9933 -5.53083 -5.2419 0 0 14.0425 24.989 79.0345 -3.44417 -1.33227e-015 1.77636e-015 17.9665 -9.22308 -15.4797 0 0 0 0.388202 -2.00681e-006 2.4941 -0.62253 -1.77636e-015 0 4.87542e-006 -1.45026e-006 4.4143e-006 0 0 0 1.59028e-015 -3.18055e-015 -0 
0.0866333 17.1612 2.91704 0.315251 8.68465 -1.64811 0 0 0 -0.299681 5.35791 18.0368 1.36306 -1.79463 0.83929 -34.1036 -32.7709 -19.7951 2.44811 -6.72613 0 -1.70557 60.1891 19.5718 2.5622 -7.03959 2.22045e-016 0.142353 13.4756 1.04029 0.15764 -0.43311 2.32255 1.28675 0.362929 0.679201 0 0 0 -8.85582 0.425549 -20.6242 -1.30552 -1.79463 0.83929 28.2616 -13.1515 11.4958 -2.54253 -6.98555 0 -12.5584 27.8641 -70.7554 -2.56826 -7.05623 0 7.33507 22.7531 -3.98068 -0.16473 -0.45259 2.36315 -0.017146 0.545948 -0.193998 0 0 0 -1.93281 -2.12354 0.12108 0.02827 2.03559 -0.19338 5.18336 22.9989 -1.08781 0.05672 2.04885 -0.04275 -2.38482 -5.93579 0.0588862 0 0 0 -1.09163 -10.5667 -0.0406684 -0.05417 1.74624 0.17202 2.34067 26.2555 -1.24591 0.10407 1.76136 -0.12397 0.0427115 -0.358029 -0.103696 0 0 0 15.5125 -7.55834 16.6308 3.36241 1.20089 -0.31121 -76.77 6.05222 12.2979 4.983 0 0 -37.2154 25.3558 -63.8473 3.48356 -4.44089e-016 0 0.783869 0.170109 -2.0669 0 0 0 -0.121024 2.85552e-007 -1.14815 0.71526 1.11022e-016 -1.77636e-015 8.94733e-007 -1.92103e-006 -2.5206e-006 0 0 0 -3.18055e-015 -1.59028e-015 9.54166e-015 0 0 0 -9.37049 -5.6609 -8.82513 -3.1366 1.37405 -0.40465 78.0086 10.8878 -5.49308 -5.2419 1.77636e-015 0 14.4208 25.5476 79.5177 -3.44417 -4.44089e-016 0 17.9504 -9.28672 -15.6207 0 0 0 0.388202 -2.00681e-006 2.4941 -0.62253 4.44089e-016 0 4.87542e-006 -1.45026e-006 4.4143e-006 0 0 0 6.36111e-015 -3.18055e-015 1.27222e-014 
0.0825971 17.132 3.0024 0.483468 8.71261 -1.79872 0 0 0 -0.299681 5.35791 18.0368 1.36306 -1.79463 0.83929 -34.8863 -34.1371 -20.3284 2.44811 -6.72613 1.77636e-015 -2.17807 61.6516 20.8142 2.5622 -7.03959 -2.22045e-016 -0.687284 14.6052 1.58165 0.15764 -0.43311 2.32255 1.85845 0.686844 1.04278 0 0 0 -8.85582 0.425549 -20.6242 -1.30552 -1.79463 0.83929 28.0391 -13.2002 11.6559 -2.54253 -6.98555 0 -12.4885 28.2522 -70.9197 -2.56826 -7.05623 -2.22045e-016 7.68933 22.6873 -4.00456 -0.16473 -0.45259 2.36315 -0.0234854 0.785355 -0.279087 0 0 0 -1.93281 -2.12354 0.12108 0.02827 2.03559 -0.19338 4.94283 23.1992 -1.18996 0.05672 2.04885 -0.04275 -2.20024 -6.01206 0.00811533 0 0 0 -1.13591 -10.8871 -0.0489027 -0.05417 1.74624 0.17202 2.29114 25.9352 -1.23154 0.10407 1.76136 -0.12397 0.0688957 -0.546275 -0.162002 0 0 0 15.5079 -7.81513 16.266 3.36241 1.20089 -0.31121 -76.0215 5.91495 12.3451 4.983 -1.77636e-015 8.88178e-016 -37.1905 25.3374 -64.2052 3.48356 -1.11022e-016 0 0.451271 0.204063 -2.21852 0 0 0 -0.121024 2.85552e-007 -1.14815 0.71526 0 -1.77636e-015 8.94733e-007 -1.92103e-006 -2.5206e-006 0 0 0 1.59028e-015 -1.59028e-015 -0 0 0 0 -9.31195 -5.83918 -8.87577 -3.1366 1.37405 -0.40465 77.3227 10.7868 -5.43102 -5.2419 -1.77636e-015 1.77636e-015 14.7903 26.1194 80.0089 -3.44417 -4.44089e-016 1.77636e-015 17.9374 -9.35552 -15.7707 0 0 0 0.388202 -2.00681e-006 2.4941 -0.62253 -4.44089e-016 -1.77636e-015 4.87542e-006 -1.45026e-006 4.4143e-006 0 0 0 3.18055e-015 0 6.36111e-015 
0.0803516 17.0974 3.08552 0.668008 8.75869 -1.94551 0 0 0 -0.299681 5.35791 18.0368 1.36306 -1.79463 0.83929 -35.8536 -35.5373 -21.0734 2.44811 -6.72613 0 -2.61099 62.9739 22.33 2.5622 -7.03959 0 -1.412 15.4029 1.98844 0.15764 -0.43311 2.32255 2.19355 1.48555 1.48649 0 0 0 -8.85582 0.425549 -20.6242 -1.30552 -1.79463 0.83929 27.7897 -13.2648 11.85 -2.54253 -6.98555 0 -12.3552 28.7001 -71.0883 -2.56826 -7.05623 -2.22045e-016 8.16118 22.5796 -4.02573 -0.16473 -0.45259 2.36315 -0.0265246 0.912884 -0.324424 0 0 0 -1.93281 -2.12354 0.12108 0.02827 2.03559 -0.19338 4.7346 23.4215 -1.28436 0.05672 2.04885 -0.04275 -2.03891 -6.08019 -0.0392133 0 0 0 -1.18677 -11.1985 -0.0621211 -0.05417 1.74624 0.17202 2.23744 25.6239 -1.22192 0.10407 1.76136 -0.12397 0.112294 -0.765293 -0.241832 0 0 0 15.4797 -8.04627 15.8656 3.36241 1.20089 -0.31121 -75.1948 5.79616 12.329 4.983 0 8.88178e-016 -37.1519 25.306 -64.5618 3.48356 0 0 0.0872665 0.242928 -2.38411 0 0 0 -0.121024 2.85552e-007 -1.14815 0.71526 1.33227e-015 -3.55271e-015 8.94733e-007 -1.92103e-006 -2.5206e-006 0 0 0 3.18055e-015 -2.38542e-015 9.54166e-015 0 0 0 -9.28642 -5.98313 -8.95128 -3.1366 1.37405 -0.40465 76.5762 10.697 -5.30815 -5.2419 -1.77636e-015 0 15.1537 26.737 80.4852 -3.44417 0 0 17.9327 -9.43743 -15.9434 0 0 0 0.388202 -2.00681e-006 2.4941 -0.62253 1.33227e-015 -1.77636e-015 4.87542e-006 -1.45026e-006 4.4143e-006 0 0 0 -1.58901e-030 9.54166e-015 9.54166e-015 
0.0801485 17.0585 3.1649 0.880787 8.82257 -2.09362 0 0 0 -0.299681 5.35791 18.0368 1.36306 -1.79463 0.83929 -37.0647 -36.9411 -22.0713 2.44811 -6.72613 0 -2.97832 64.1418 24.2501 2.5622 -7.03959 -6.66134e-016 -2.05688 15.7216 2.20735 0.15764 -0.43311 2.32255 2.21263 3.00173 2.08239 0 0 0 -8.85582 0.425549 -20.6242 -1.30552 -1.79463 0.83929 27.51 -13.3462 12.1071 -2.54253 -6.98555 8.88178e-016 -12.1506 29.2115 -71.2983 -2.56826 -7.05623 2.22045e-016 8.70863 22.4295 -4.04131 -0.16473 -0.45259 2.36315 -0.0261053 0.909026 -0.323084 0 0 0 -1.93281 -2.12354 0.12108 0.02827 2.03559 -0.19338 4.54645 23.6817 -1.37167 0.05672 2.04885 -0.04275 -1.89793 -6.14085 -0.082334 0 0 0 -1.24445 -11.5052 -0.0813194 -0.05417 1.74624 0.17202 2.17968 25.3169 -1.21784 0.10407 1.76136 -0.12397 0.176535 -1.02462 -0.346135 0 0 0 15.4224 -8.24942 15.417 3.36241 1.20089 -0.31121 -74.2676 5.69286 12.248 4.983 -1.77636e-015 -8.88178e-016 -37.0967 25.2664 -64.9343 3.48356 -4.44089e-016 0 -0.326074 0.286762 -2.56409 0 0 0 -0.121024 2.85552e-007 -1.14815 0.71526 2.22045e-016 0 8.94733e-007 -1.92103e-006 -2.5206e-006 0 0 0 -7.95139e-016 -1.59028e-015 3.18055e-015 0 0 0 -9.30119 -6.09075 -9.05118 -3.1366 1.37405 -0.40465 75.765 10.6196 -5.122 -5.2419 1.77636e-015 8.88178e-016 15.5133 27.419 80.9556 -3.44417 4.44089e-016 -1.77636e-015 17.9327 -9.53609 -16.1486 0 0 0 0.388202 -2.00681e-006 2.4941 -0.62253 -4.44089e-016 0 4.87542e-006 -1.45026e-006 4.4143e-006 0 0 0 -6.36111e-015 0 -0 
0.0814264 17.0163 3.24163 1.11368 8.89949 -2.24237 0 0 0 -0.299681 5.35791 18.0368 1.36306 -1.79463 0.83929 -38.4869 -38.3356 -23.2782 2.44811 -6.72613 0 -3.3668 65.1772 26.519 2.5622 -7.03959 -1.11022e-015 -2.63444 15.6993 2.28998 0.15764 -0.43311 2.32255 1.97119 5.02616 2.78931 0 0 0 -8.85582 0.425549 -20.6242 -1.30552 -1.79463 0.83929 27.209 -13.4396 12.4087 -2.54253 -6.98555 0 -11.8911 29.7687 -71.5434 -2.56826 -7.05623 6.66134e-016 9.3143 22.2484 -4.05299 -0.16473 -0.45259 2.36315 -0.0232045 0.810118 -0.287975 0 0 0 -1.93281 -2.12354 0.12108 0.02827 2.03559 -0.19338 4.37413 23.9686 -1.4539 0.05672 2.04885 -0.04275 -1.77205 -6.19597 -0.12242 0 0 0 -1.30723 -11.8084 -0.104864 -0.05417 1.74624 0.17202 2.11887 25.0136 -1.21776 0.10407 1.76136 -0.12397 0.255141 -1.31286 -0.468211 0 0 0 15.3434 -8.43207 14.9338 3.36241 1.20089 -0.31121 -73.2685 5.60102 12.1195 4.983 1.77636e-015 0 -37.0296 25.219 -65.3168 3.48356 0 -1.77636e-015 -0.774263 0.334229 -2.75461 0 0 0 -0.121024 2.85552e-007 -1.14815 0.71526 0 0 8.94733e-007 -1.92103e-006 -2.5206e-006 0 0 0 -3.18055e-015 0 3.18055e-015 0 0 0 -9.3451 -6.17183 -9.169 -3.1366 1.37405 -0.40465 74.907 10.5512 -4.88968 -5.2419 1.77636e-015 -1.77636e-015 15.8647 28.1461 81.4337 -3.44417 8.88178e-016 0 17.936 -9.64657 -16.3772 0 0 0 0.388202 -2.00681e-006 2.4941 -0.62253 0 0 4.87542e-006 -1.45026e-006 4.4143e-006 0 0 0 -9.54166e-015 -3.18055e-015 3.18055e-015 
0.0840401 16.9676 3.31829 1.34647 8.99376 -2.38082 0 0 0 -0.299681 5.35791 18.0368 1.36306 -1.79463 0.83929 -40.0979 -39.7628 -24.6933 2.44811 -6.72613 0 -3.81889 66.0618 28.9204 2.5622 -7.03959 -4.44089e-016 -3.04072 15.5665 2.30711 0.15764 -0.43311 2.32255 1.54065 7.16609 3.48531 0 0 0 -8.85582 0.425549 -20.6242 -1.30552 -1.79463 0.83929 26.8887 -13.5456 12.7036 -2.54253 -6.98555 8.88178e-016 -11.5777 30.3783 -71.7571 -2.56826 -7.05623 2.22045e-016 10.0856 22.029 -4.06602 -0.16473 -0.45259 2.36315 -0.0183809 0.63281 -0.224979 0 0 0 -1.93281 -2.12354 0.12108 0.02827 2.03559 -0.19338 4.24835 24.2551 -1.52806 0.05672 2.04885 -0.04275 -1.67162 -6.24265 -0.160302 0 0 0 -1.37614 -12.0971 -0.131799 -0.05417 1.74624 0.17202 2.05367 24.7244 -1.22091 0.10407 1.76136 -0.12397 0.343218 -1.61709 -0.606495 0 0 0 15.2503 -8.59307 14.4341 3.36241 1.20089 -0.31121 -72.2277 5.53008 11.934 4.983 0 -1.77636e-015 -36.9545 25.1538 -65.674 3.48356 0 1.77636e-015 -1.22754 0.386176 -2.95756 0 0 0 -0.121024 2.85552e-007 -1.14815 0.71526 -4.44089e-016 0 8.94733e-007 -1.92103e-006 -2.5206e-006 0 0 0 -8.82781e-032 -1.59028e-015 -3.18055e-015 0 0 0 -9.41016 -6.22347 -9.31054 -3.1366 1.37405 -0.40465 73.9987 10.4911 -4.60398 -5.2419 -1.77636e-015 0 16.2018 28.8966 81.9019 -3.44417 -8.88178e-016 1.77636e-015 17.9504 -9.76394 -16.6141 0 0 0 0.388202 -2.00681e-006 2.4941 -0.62253 1.33227e-015 -1.77636e-015 4.87542e-006 -1.45026e-006 4.4143e-006 0 0 0 9.54166e-015 -3.18055e-015 3.18055e-015 
